<svg width="45" height="32" viewBox="0 0 45 32" fill="none" xmlns="http://www.w3.org/2000/svg">
<path d="M28.087 19.7439C28.087 21.2799 27.543 22.5519 26.455 23.5599C25.367 24.5679 24.023 25.0719 22.423 25.0719C21.351 25.0719 20.303 24.7839 19.279 24.2079C18.879 23.9839 18.215 23.5119 17.287 22.7919L18.559 21.0399C19.439 21.7119 20.071 22.1599 20.455 22.3839C21.175 22.7839 21.903 22.9839 22.639 22.9839C23.551 22.9839 24.303 22.7039 24.895 22.1439C25.487 21.5839 25.783 20.8799 25.783 20.0319C25.783 19.2319 25.407 18.5599 24.655 18.0159C24.271 17.7439 23.543 17.3999 22.471 16.9839L21.271 16.5279C20.151 16.0959 19.327 15.5679 18.799 14.9439C18.191 14.2239 17.887 13.2799 17.887 12.1119C17.887 10.7519 18.359 9.65585 19.303 8.82385C20.263 7.97585 21.423 7.55185 22.783 7.55185C23.743 7.55185 24.575 7.68785 25.279 7.95985C25.983 8.21585 26.655 8.63985 27.295 9.23185L26.047 10.9359C25.615 10.4399 25.095 10.0639 24.487 9.80785C23.879 9.53585 23.279 9.39985 22.687 9.39985C21.999 9.39985 21.407 9.66385 20.911 10.1919C20.431 10.7039 20.191 11.2959 20.191 11.9679C20.191 12.6079 20.391 13.1439 20.791 13.5759C21.111 13.9119 21.551 14.1919 22.111 14.4159L23.335 14.8959C25.303 15.6479 26.607 16.4079 27.247 17.1759C27.807 17.8639 28.087 18.7199 28.087 19.7439Z" fill="white"/>
<path d="M29.871 5.2L22.599 22.888L15.183 5.2H17.463L22.527 17.344L27.495 5.2H29.871Z" fill="white"/>
</svg>
